<?xml version="1.0" standalone="no"?>
<!DOCTYPE svg PUBLIC "-//W3C//DTD SVG 20010904//EN"
 "http://www.w3.org/TR/2001/REC-SVG-20010904/DTD/svg10.dtd">
<svg version="1.0" xmlns="http://www.w3.org/2000/svg"
 width="2048.000000pt" height="2048.000000pt" viewBox="0 0 2048.000000 2048.000000"
 preserveAspectRatio="xMidYMid meet">
<metadata>
Created by potrace 1.14, written by Peter Selinger 2001-2017
</metadata>
<g transform="translate(0.000000,2048.000000) scale(0.100000,-0.100000)"
fill="#000000" stroke="none">
<path d="M11407 16044 c-1 -1 -28 -4 -60 -8 -215 -22 -414 -166 -516 -372
-106 -216 -81 -473 78 -799 125 -259 147 -368 108 -540 -11 -44 -20 -84 -21
-90 -24 -108 -79 -323 -84 -330 -4 -6 -16 -15 -27 -21 -17 -9 -37 -51 -50
-104 -2 -8 -27 -96 -55 -195 -32 -111 -50 -191 -47 -210 4 -22 -9 -59 -49
-140 -62 -130 -74 -176 -70 -270 3 -61 -2 -86 -40 -198 -24 -71 -67 -208 -94
-305 l-51 -177 -82 -80 c-47 -46 -98 -108 -119 -145 -27 -46 -38 -58 -38 -42
0 27 -14 56 -47 95 -17 22 -23 39 -21 73 1 28 -4 50 -13 58 -15 14 -108 46
-133 46 -9 0 -22 13 -30 29 -9 16 -27 32 -41 35 -14 4 -56 36 -93 72 -77 75
-128 105 -226 129 -171 43 -349 -17 -501 -170 -131 -130 -181 -250 -180 -430
1 -95 7 -123 46 -197 23 -42 66 -95 130 -158 l95 -95 -31 -79 c-25 -64 -42
-90 -95 -143 -56 -57 -109 -95 -125 -92 -3 0 -19 -2 -35 -6 -96 -21 -187 -103
-263 -236 -27 -46 -69 -118 -94 -159 -25 -41 -74 -130 -108 -198 -35 -67 -81
-142 -104 -167 -75 -82 -140 -198 -170 -306 -12 -43 -31 -72 -80 -127 -228
-255 -435 -592 -586 -952 -32 -77 -43 -91 -189 -240 -62 -63 -120 -127 -130
-142 -17 -27 -68 -58 -211 -132 -91 -46 -254 -81 -421 -90 -28 -1 -56 -6 -62
-10 -19 -12 -14 -44 11 -60 47 -30 299 -52 377 -33 8 2 33 7 55 12 22 4 48 12
58 17 10 5 26 7 34 4 28 -11 -11 -41 -113 -87 -97 -44 -120 -68 -91 -96 34
-34 94 -28 265 27 89 29 165 50 168 47 3 -3 -6 -26 -21 -51 -57 -97 -35 -143
53 -115 37 12 65 36 108 94 104 141 138 156 203 85 49 -53 115 -81 200 -83 54
-2 73 2 89 16 48 43 32 90 -37 111 -72 21 -91 34 -106 70 -10 23 -11 44 -5 71
5 21 5 58 1 82 -10 53 -5 136 10 164 6 11 17 43 25 70 20 67 91 201 156 292
38 53 72 87 118 118 170 115 242 171 332 259 121 119 163 181 270 402 56 114
65 128 93 134 67 14 126 63 153 126 14 33 21 38 49 38 48 0 77 -15 93 -46 19
-39 106 -170 144 -218 24 -31 29 -47 27 -80 -2 -48 24 -107 67 -151 30 -31 37
-47 47 -105 8 -50 22 -103 51 -196 l26 -82 -64 -85 c-58 -79 -67 -86 -111 -96
-66 -15 -102 -35 -131 -74 -54 -70 -65 -130 -67 -358 0 -101 -5 -170 -12 -183
-37 -66 -136 -142 -206 -157 -64 -13 -106 -42 -148 -99 -46 -64 -51 -68 -146
-137 -250 -182 -591 -541 -714 -750 -14 -24 -30 -43 -36 -44 -80 -5 -174 -35
-241 -77 -22 -13 -65 -51 -97 -84 -52 -55 -120 -98 -155 -98 -8 0 -14 -4 -14
-10 0 -5 -7 -10 -16 -10 -9 0 -28 -7 -42 -14 -15 -8 -83 -43 -152 -77 -164
-81 -338 -181 -490 -282 -68 -45 -288 -204 -300 -217 -3 -3 -48 -40 -100 -84
-52 -43 -197 -182 -322 -307 -124 -126 -231 -229 -236 -229 -17 0 -23 -35 -12
-65 9 -25 7 -30 -32 -65 l-43 -37 -38 32 c-46 39 -77 37 -112 -10 -14 -17 -25
-35 -25 -39 0 -3 -11 -24 -25 -46 -18 -29 -32 -40 -50 -40 -32 0 -52 32 -69
111 -17 80 -29 111 -50 128 -22 18 -44 7 -60 -31 -13 -29 -12 -39 8 -93 12
-33 21 -73 21 -90 -1 -16 7 -52 17 -79 25 -64 19 -82 -20 -62 -26 13 -32 13
-58 -3 -48 -30 -69 -60 -69 -100 0 -34 -3 -38 -65 -69 -36 -18 -80 -35 -100
-36 -19 -2 -89 -22 -155 -45 -72 -26 -144 -45 -180 -47 -33 -2 -73 -8 -90 -14
-16 -5 -57 -12 -90 -15 -47 -5 -74 -15 -122 -47 -71 -46 -130 -106 -139 -143
-8 -33 3 -91 24 -124 109 -174 256 -303 360 -316 118 -16 170 -7 290 53 84 41
100 46 165 46 40 0 88 -4 107 -9 61 -17 161 -10 206 13 48 24 111 91 120 127
3 14 12 25 18 25 15 0 47 35 65 72 20 39 50 63 97 76 54 16 85 45 125 117 39
73 83 122 125 140 18 7 36 25 43 43 12 28 77 82 100 82 5 0 14 7 21 15 7 8 28
15 47 15 36 0 56 11 141 74 50 37 54 38 91 27 69 -20 92 -15 145 35 28 25 156
125 285 221 130 97 261 194 291 217 30 23 71 48 90 56 41 16 147 72 323 171
38 22 71 39 73 39 22 0 613 394 644 430 23 27 101 76 152 96 35 14 77 31 93
39 17 7 75 33 130 58 218 98 602 292 776 393 202 116 300 169 549 295 144 72
172 83 217 83 28 0 58 -5 65 -11 59 -48 300 -145 445 -178 37 -9 86 -22 108
-30 22 -8 60 -22 85 -30 25 -9 108 -43 185 -75 77 -32 201 -83 275 -113 74
-30 185 -77 245 -105 187 -85 358 -138 505 -156 63 -8 86 -13 213 -45 62 -16
132 -32 157 -36 25 -3 70 -21 100 -40 30 -18 96 -53 145 -77 88 -43 247 -143
253 -160 2 -4 8 -8 13 -8 5 0 31 -17 57 -37 27 -21 62 -48 78 -59 53 -39 207
-156 294 -223 194 -150 254 -193 302 -217 45 -23 65 -30 116 -38 15 -3 145
-95 243 -172 254 -202 314 -237 397 -235 50 1 58 -2 123 -53 38 -30 87 -76
108 -103 21 -26 65 -70 97 -98 81 -68 105 -95 134 -145 14 -24 62 -82 107
-128 51 -52 87 -99 94 -121 18 -58 122 -251 152 -283 21 -24 33 -29 52 -24 42
11 124 68 225 158 112 99 253 202 330 242 92 48 294 184 356 241 7 5 29 24 50
42 48 39 108 95 249 232 126 122 165 167 165 186 0 27 -60 82 -112 105 -89 38
-169 18 -318 -79 -107 -69 -136 -81 -220 -87 -76 -7 -280 -6 -310 1 -36 8
-213 7 -233 -1 -28 -10 -20 14 30 89 84 124 125 162 214 199 73 29 80 35 77
58 -3 23 -6 25 -48 22 -98 -7 -163 -38 -241 -116 -28 -28 -43 -36 -62 -32 -19
3 -33 -4 -58 -30 -18 -19 -50 -39 -71 -45 -32 -8 -44 -6 -85 15 -26 13 -59 34
-71 46 -20 19 -29 21 -55 13 -28 -8 -37 -5 -77 25 -25 19 -47 36 -48 37 -2 2
5 29 17 59 l21 56 -53 38 c-28 20 -72 50 -96 66 -25 16 -55 39 -68 52 -13 13
-85 77 -161 141 -75 65 -139 120 -142 123 -3 3 -27 23 -55 45 -27 21 -52 42
-55 45 -6 6 -172 138 -260 207 -60 46 -324 244 -381 286 -184 134 -351 247
-569 387 -207 132 -194 127 -347 156 -12 2 -55 37 -95 78 -165 165 -348 318
-503 419 -140 90 -260 154 -547 291 -129 61 -157 83 -128 101 14 9 33 85 31
125 -3 50 -35 112 -84 159 -42 41 -146 110 -197 131 -22 9 -37 34 -78 131
l-51 119 14 52 c24 96 54 242 60 303 4 33 9 69 11 80 16 82 22 448 10 625 -3
52 -8 129 -11 170 -10 159 -30 220 -125 390 -71 127 -90 178 -129 340 -33 141
-43 208 -43 296 0 96 10 139 72 294 58 145 96 262 106 323 3 18 8 93 11 167 4
104 10 153 29 213 13 44 27 118 31 165 5 69 15 111 50 202 41 104 92 295 107
393 14 93 30 133 66 168 43 42 61 98 86 264 15 101 18 173 13 360 -2 63 7 206
15 252 2 10 7 54 11 97 4 43 8 86 10 95 1 9 6 39 9 66 4 28 14 70 23 95 21 64
18 144 -7 187 -39 66 -25 78 100 86 283 18 534 236 594 518 13 57 15 235 3
279 -30 117 -57 175 -121 262 -104 144 -262 239 -436 263 -52 7 -119 12 -123
9z"/>
</g>
</svg>
